<mxfile host="app.diagrams.net" modified="2024-03-24T14:34:30.604Z" agent="Mozilla/5.0 (Windows NT 10.0; Win64; x64; rv:124.0) Gecko/20100101 Firefox/124.0" etag="qIYxJAP_3HDvjZPrz8Du" version="24.1.0" type="device">
  <diagram id="C5RBs43oDa-KdzZeNtuy" name="Page-1">
    <mxGraphModel dx="2431" dy="1051" grid="1" gridSize="10" guides="1" tooltips="1" connect="1" arrows="1" fold="1" page="1" pageScale="1" pageWidth="827" pageHeight="1169" math="0" shadow="0">
      <root>
        <mxCell id="WIyWlLk6GJQsqaUBKTNV-0" />
        <mxCell id="WIyWlLk6GJQsqaUBKTNV-1" parent="WIyWlLk6GJQsqaUBKTNV-0" />
        <mxCell id="swRQGkRVRpq4I_2BTuOX-70" value="" style="curved=0;endArrow=classic;html=1;rounded=1;entryX=0;entryY=0.5;entryDx=0;entryDy=0;exitX=0.994;exitY=0.093;exitDx=0;exitDy=0;exitPerimeter=0;" parent="WIyWlLk6GJQsqaUBKTNV-1" source="swRQGkRVRpq4I_2BTuOX-53" target="S2tDdmj9LWDVafaL_d1E-29" edge="1">
          <mxGeometry width="50" height="50" relative="1" as="geometry">
            <mxPoint x="-590" y="605" as="sourcePoint" />
            <mxPoint x="-460" y="845" as="targetPoint" />
            <Array as="points">
              <mxPoint x="-520" y="580" />
              <mxPoint x="-520" y="852" />
            </Array>
          </mxGeometry>
        </mxCell>
        <mxCell id="swRQGkRVRpq4I_2BTuOX-73" value="1.25" style="edgeLabel;html=1;align=center;verticalAlign=middle;resizable=0;points=[];" parent="swRQGkRVRpq4I_2BTuOX-70" vertex="1" connectable="0">
          <mxGeometry x="0.8909" relative="1" as="geometry">
            <mxPoint x="-8" as="offset" />
          </mxGeometry>
        </mxCell>
        <mxCell id="swRQGkRVRpq4I_2BTuOX-65" value="" style="curved=0;endArrow=classic;html=1;rounded=1;entryX=0;entryY=0.5;entryDx=0;entryDy=0;exitX=0.992;exitY=0.095;exitDx=0;exitDy=0;exitPerimeter=0;" parent="WIyWlLk6GJQsqaUBKTNV-1" source="swRQGkRVRpq4I_2BTuOX-53" target="S2tDdmj9LWDVafaL_d1E-28" edge="1">
          <mxGeometry width="50" height="50" relative="1" as="geometry">
            <mxPoint x="-590" y="585" as="sourcePoint" />
            <mxPoint x="-472" y="806" as="targetPoint" />
            <Array as="points">
              <mxPoint x="-520" y="580" />
              <mxPoint x="-520" y="825" />
            </Array>
          </mxGeometry>
        </mxCell>
        <mxCell id="swRQGkRVRpq4I_2BTuOX-69" value="1" style="edgeLabel;html=1;align=center;verticalAlign=middle;resizable=0;points=[];" parent="swRQGkRVRpq4I_2BTuOX-65" vertex="1" connectable="0">
          <mxGeometry x="0.8816" y="-2" relative="1" as="geometry">
            <mxPoint y="-2" as="offset" />
          </mxGeometry>
        </mxCell>
        <mxCell id="zkfFHV4jXpPFQw0GAbJ--0" value="Person" style="swimlane;fontStyle=2;align=center;verticalAlign=top;childLayout=stackLayout;horizontal=1;startSize=26;horizontalStack=0;resizeParent=1;resizeLast=0;collapsible=1;marginBottom=0;rounded=0;shadow=0;strokeWidth=1;strokeColor=default;swimlaneLine=1;" parent="WIyWlLk6GJQsqaUBKTNV-1" vertex="1">
          <mxGeometry x="40" y="329" width="160" height="260" as="geometry">
            <mxRectangle x="230" y="140" width="160" height="26" as="alternateBounds" />
          </mxGeometry>
        </mxCell>
        <mxCell id="zkfFHV4jXpPFQw0GAbJ--1" value="Name" style="text;align=left;verticalAlign=top;spacingLeft=4;spacingRight=4;overflow=hidden;rotatable=0;points=[[0,0.5],[1,0.5]];portConstraint=eastwest;" parent="zkfFHV4jXpPFQw0GAbJ--0" vertex="1">
          <mxGeometry y="26" width="160" height="26" as="geometry" />
        </mxCell>
        <mxCell id="zkfFHV4jXpPFQw0GAbJ--2" value="Nationality" style="text;align=left;verticalAlign=top;spacingLeft=4;spacingRight=4;overflow=hidden;rotatable=0;points=[[0,0.5],[1,0.5]];portConstraint=eastwest;rounded=0;shadow=0;html=0;" parent="zkfFHV4jXpPFQw0GAbJ--0" vertex="1">
          <mxGeometry y="52" width="160" height="26" as="geometry" />
        </mxCell>
        <mxCell id="S2tDdmj9LWDVafaL_d1E-8" value="Age" style="text;align=left;verticalAlign=top;spacingLeft=4;spacingRight=4;overflow=hidden;rotatable=0;points=[[0,0.5],[1,0.5]];portConstraint=eastwest;rounded=0;shadow=0;html=0;" parent="zkfFHV4jXpPFQw0GAbJ--0" vertex="1">
          <mxGeometry y="78" width="160" height="26" as="geometry" />
        </mxCell>
        <mxCell id="S2tDdmj9LWDVafaL_d1E-3" value="n° World Championships" style="text;align=left;verticalAlign=top;spacingLeft=4;spacingRight=4;overflow=hidden;rotatable=0;points=[[0,0.5],[1,0.5]];portConstraint=eastwest;rounded=0;shadow=0;html=0;" parent="zkfFHV4jXpPFQw0GAbJ--0" vertex="1">
          <mxGeometry y="104" width="160" height="26" as="geometry" />
        </mxCell>
        <mxCell id="S2tDdmj9LWDVafaL_d1E-4" value="Victories" style="text;align=left;verticalAlign=top;spacingLeft=4;spacingRight=4;overflow=hidden;rotatable=0;points=[[0,0.5],[1,0.5]];portConstraint=eastwest;rounded=0;shadow=0;html=0;" parent="zkfFHV4jXpPFQw0GAbJ--0" vertex="1">
          <mxGeometry y="130" width="160" height="26" as="geometry" />
        </mxCell>
        <mxCell id="S2tDdmj9LWDVafaL_d1E-5" value="Années actif" style="text;align=left;verticalAlign=top;spacingLeft=4;spacingRight=4;overflow=hidden;rotatable=0;points=[[0,0.5],[1,0.5]];portConstraint=eastwest;rounded=0;shadow=0;html=0;" parent="zkfFHV4jXpPFQw0GAbJ--0" vertex="1">
          <mxGeometry y="156" width="160" height="24" as="geometry" />
        </mxCell>
        <mxCell id="S2tDdmj9LWDVafaL_d1E-6" value="Salaire actuel" style="text;align=left;verticalAlign=top;spacingLeft=4;spacingRight=4;overflow=hidden;rotatable=0;points=[[0,0.5],[1,0.5]];portConstraint=eastwest;rounded=0;shadow=0;html=0;" parent="zkfFHV4jXpPFQw0GAbJ--0" vertex="1">
          <mxGeometry y="180" width="160" height="26" as="geometry" />
        </mxCell>
        <mxCell id="S2tDdmj9LWDVafaL_d1E-7" value="Famille dans le sport" style="text;align=left;verticalAlign=top;spacingLeft=4;spacingRight=4;overflow=hidden;rotatable=0;points=[[0,0.5],[1,0.5]];portConstraint=eastwest;rounded=0;shadow=0;html=0;" parent="zkfFHV4jXpPFQw0GAbJ--0" vertex="1">
          <mxGeometry y="206" width="160" height="26" as="geometry" />
        </mxCell>
        <mxCell id="zkfFHV4jXpPFQw0GAbJ--3" value="Ecuries (équipe)" style="text;align=left;verticalAlign=top;spacingLeft=4;spacingRight=4;overflow=hidden;rotatable=0;points=[[0,0.5],[1,0.5]];portConstraint=eastwest;rounded=0;shadow=0;html=0;" parent="zkfFHV4jXpPFQw0GAbJ--0" vertex="1">
          <mxGeometry y="232" width="160" height="26" as="geometry" />
        </mxCell>
        <mxCell id="zkfFHV4jXpPFQw0GAbJ--13" value="Team" style="swimlane;fontStyle=0;align=center;verticalAlign=top;childLayout=stackLayout;horizontal=1;startSize=26;horizontalStack=0;resizeParent=1;resizeLast=0;collapsible=1;marginBottom=0;rounded=0;shadow=0;strokeWidth=1;" parent="WIyWlLk6GJQsqaUBKTNV-1" vertex="1">
          <mxGeometry x="130" y="639" width="160" height="206" as="geometry">
            <mxRectangle x="340" y="380" width="170" height="26" as="alternateBounds" />
          </mxGeometry>
        </mxCell>
        <mxCell id="zkfFHV4jXpPFQw0GAbJ--14" value="Name" style="text;align=left;verticalAlign=top;spacingLeft=4;spacingRight=4;overflow=hidden;rotatable=0;points=[[0,0.5],[1,0.5]];portConstraint=eastwest;" parent="zkfFHV4jXpPFQw0GAbJ--13" vertex="1">
          <mxGeometry y="26" width="160" height="26" as="geometry" />
        </mxCell>
        <mxCell id="S2tDdmj9LWDVafaL_d1E-13" value="Age" style="text;align=left;verticalAlign=top;spacingLeft=4;spacingRight=4;overflow=hidden;rotatable=0;points=[[0,0.5],[1,0.5]];portConstraint=eastwest;" parent="zkfFHV4jXpPFQw0GAbJ--13" vertex="1">
          <mxGeometry y="52" width="160" height="26" as="geometry" />
        </mxCell>
        <mxCell id="swRQGkRVRpq4I_2BTuOX-22" value="Championships" style="text;align=left;verticalAlign=top;spacingLeft=4;spacingRight=4;overflow=hidden;rotatable=0;points=[[0,0.5],[1,0.5]];portConstraint=eastwest;" parent="zkfFHV4jXpPFQw0GAbJ--13" vertex="1">
          <mxGeometry y="78" width="160" height="32" as="geometry" />
        </mxCell>
        <mxCell id="swRQGkRVRpq4I_2BTuOX-24" value="Victories" style="text;align=left;verticalAlign=top;spacingLeft=4;spacingRight=4;overflow=hidden;rotatable=0;points=[[0,0.5],[1,0.5]];portConstraint=eastwest;" parent="zkfFHV4jXpPFQw0GAbJ--13" vertex="1">
          <mxGeometry y="110" width="160" height="32" as="geometry" />
        </mxCell>
        <mxCell id="swRQGkRVRpq4I_2BTuOX-25" value="Drivers" style="text;align=left;verticalAlign=top;spacingLeft=4;spacingRight=4;overflow=hidden;rotatable=0;points=[[0,0.5],[1,0.5]];portConstraint=eastwest;" parent="zkfFHV4jXpPFQw0GAbJ--13" vertex="1">
          <mxGeometry y="142" width="160" height="32" as="geometry" />
        </mxCell>
        <mxCell id="swRQGkRVRpq4I_2BTuOX-23" value="Nationality" style="text;align=left;verticalAlign=top;spacingLeft=4;spacingRight=4;overflow=hidden;rotatable=0;points=[[0,0.5],[1,0.5]];portConstraint=eastwest;" parent="zkfFHV4jXpPFQw0GAbJ--13" vertex="1">
          <mxGeometry y="174" width="160" height="32" as="geometry" />
        </mxCell>
        <mxCell id="S2tDdmj9LWDVafaL_d1E-27" value="Season" style="swimlane;fontStyle=0;align=center;verticalAlign=top;childLayout=stackLayout;horizontal=1;startSize=26;horizontalStack=0;resizeParent=1;resizeLast=0;collapsible=1;marginBottom=0;rounded=0;shadow=0;strokeWidth=1;" parent="WIyWlLk6GJQsqaUBKTNV-1" vertex="1">
          <mxGeometry x="-460" y="760" width="160" height="162" as="geometry">
            <mxRectangle x="340" y="380" width="170" height="26" as="alternateBounds" />
          </mxGeometry>
        </mxCell>
        <mxCell id="swRQGkRVRpq4I_2BTuOX-35" value="Season Debut" style="text;align=left;verticalAlign=top;spacingLeft=4;spacingRight=4;overflow=hidden;rotatable=0;points=[[0,0.5],[1,0.5]];portConstraint=eastwest;" parent="S2tDdmj9LWDVafaL_d1E-27" vertex="1">
          <mxGeometry y="26" width="160" height="26" as="geometry" />
        </mxCell>
        <mxCell id="S2tDdmj9LWDVafaL_d1E-28" value="Seasone Finale" style="text;align=left;verticalAlign=top;spacingLeft=4;spacingRight=4;overflow=hidden;rotatable=0;points=[[0,0.5],[1,0.5]];portConstraint=eastwest;" parent="S2tDdmj9LWDVafaL_d1E-27" vertex="1">
          <mxGeometry y="52" width="160" height="26" as="geometry" />
        </mxCell>
        <mxCell id="S2tDdmj9LWDVafaL_d1E-29" value="Ammount of races" style="text;align=left;verticalAlign=top;spacingLeft=4;spacingRight=4;overflow=hidden;rotatable=0;points=[[0,0.5],[1,0.5]];portConstraint=eastwest;" parent="S2tDdmj9LWDVafaL_d1E-27" vertex="1">
          <mxGeometry y="78" width="160" height="28" as="geometry" />
        </mxCell>
        <mxCell id="swRQGkRVRpq4I_2BTuOX-66" value="World Campion" style="text;align=left;verticalAlign=top;spacingLeft=4;spacingRight=4;overflow=hidden;rotatable=0;points=[[0,0.5],[1,0.5]];portConstraint=eastwest;" parent="S2tDdmj9LWDVafaL_d1E-27" vertex="1">
          <mxGeometry y="106" width="160" height="28" as="geometry" />
        </mxCell>
        <mxCell id="S2tDdmj9LWDVafaL_d1E-32" value="Constructor Campion" style="text;align=left;verticalAlign=top;spacingLeft=4;spacingRight=4;overflow=hidden;rotatable=0;points=[[0,0.5],[1,0.5]];portConstraint=eastwest;" parent="S2tDdmj9LWDVafaL_d1E-27" vertex="1">
          <mxGeometry y="134" width="160" height="28" as="geometry" />
        </mxCell>
        <mxCell id="S2tDdmj9LWDVafaL_d1E-38" value="Appellation" style="swimlane;fontStyle=0;align=center;verticalAlign=top;childLayout=stackLayout;horizontal=1;startSize=26;horizontalStack=0;resizeParent=1;resizeLast=0;collapsible=1;marginBottom=0;rounded=0;shadow=0;strokeWidth=1;" parent="WIyWlLk6GJQsqaUBKTNV-1" vertex="1">
          <mxGeometry x="-320" y="260" width="140" height="116" as="geometry">
            <mxRectangle x="340" y="380" width="170" height="26" as="alternateBounds" />
          </mxGeometry>
        </mxCell>
        <mxCell id="_47ecx8BFIw6UD-ki121-18" value="&amp;nbsp;Name" style="text;html=1;align=left;verticalAlign=middle;resizable=0;points=[];autosize=1;strokeColor=none;fillColor=none;" vertex="1" parent="S2tDdmj9LWDVafaL_d1E-38">
          <mxGeometry y="26" width="140" height="30" as="geometry" />
        </mxCell>
        <mxCell id="_47ecx8BFIw6UD-ki121-19" value="&amp;nbsp;Nickname" style="text;html=1;align=left;verticalAlign=middle;resizable=0;points=[];autosize=1;strokeColor=none;fillColor=none;" vertex="1" parent="S2tDdmj9LWDVafaL_d1E-38">
          <mxGeometry y="56" width="140" height="30" as="geometry" />
        </mxCell>
        <mxCell id="_47ecx8BFIw6UD-ki121-17" value="&amp;nbsp;Language" style="text;html=1;align=left;verticalAlign=middle;resizable=0;points=[];autosize=1;strokeColor=none;fillColor=none;" vertex="1" parent="S2tDdmj9LWDVafaL_d1E-38">
          <mxGeometry y="86" width="140" height="30" as="geometry" />
        </mxCell>
        <mxCell id="swRQGkRVRpq4I_2BTuOX-7" value="" style="curved=0;endArrow=classic;html=1;rounded=1;exitX=0;exitY=0.5;exitDx=0;exitDy=0;entryX=1.016;entryY=0.093;entryDx=0;entryDy=0;entryPerimeter=0;" parent="WIyWlLk6GJQsqaUBKTNV-1" source="zkfFHV4jXpPFQw0GAbJ--1" target="S2tDdmj9LWDVafaL_d1E-38" edge="1">
          <mxGeometry width="50" height="50" relative="1" as="geometry">
            <mxPoint x="20" y="409" as="sourcePoint" />
            <mxPoint x="70" y="359" as="targetPoint" />
            <Array as="points">
              <mxPoint x="-90" y="369" />
              <mxPoint x="-90" y="270" />
            </Array>
          </mxGeometry>
        </mxCell>
        <mxCell id="swRQGkRVRpq4I_2BTuOX-12" value="0..N" style="edgeLabel;html=1;align=center;verticalAlign=middle;resizable=0;points=[];" parent="swRQGkRVRpq4I_2BTuOX-7" vertex="1" connectable="0">
          <mxGeometry x="0.7835" y="-1" relative="1" as="geometry">
            <mxPoint x="8" as="offset" />
          </mxGeometry>
        </mxCell>
        <mxCell id="swRQGkRVRpq4I_2BTuOX-13" value="1" style="edgeLabel;html=1;align=center;verticalAlign=middle;resizable=0;points=[];" parent="swRQGkRVRpq4I_2BTuOX-7" vertex="1" connectable="0">
          <mxGeometry x="-0.8365" y="-5" relative="1" as="geometry">
            <mxPoint x="6" as="offset" />
          </mxGeometry>
        </mxCell>
        <mxCell id="swRQGkRVRpq4I_2BTuOX-17" value="&lt;div&gt;Has&amp;nbsp;&lt;/div&gt;&lt;div&gt;appellation&lt;/div&gt;" style="edgeLabel;html=1;align=center;verticalAlign=middle;resizable=0;points=[];" parent="swRQGkRVRpq4I_2BTuOX-7" vertex="1" connectable="0">
          <mxGeometry x="-0.0418" y="-2" relative="1" as="geometry">
            <mxPoint y="-28" as="offset" />
          </mxGeometry>
        </mxCell>
        <mxCell id="swRQGkRVRpq4I_2BTuOX-27" value="Geographical place" style="swimlane;fontStyle=0;childLayout=stackLayout;horizontal=1;startSize=30;horizontalStack=0;resizeParent=1;resizeParentMax=0;resizeLast=0;collapsible=1;marginBottom=0;whiteSpace=wrap;html=1;" parent="WIyWlLk6GJQsqaUBKTNV-1" vertex="1">
          <mxGeometry x="-413" y="440" width="140" height="120" as="geometry" />
        </mxCell>
        <mxCell id="swRQGkRVRpq4I_2BTuOX-29" value="Country Name" style="text;strokeColor=none;fillColor=none;align=left;verticalAlign=middle;spacingLeft=4;spacingRight=4;overflow=hidden;points=[[0,0.5],[1,0.5]];portConstraint=eastwest;rotatable=0;whiteSpace=wrap;html=1;" parent="swRQGkRVRpq4I_2BTuOX-27" vertex="1">
          <mxGeometry y="30" width="140" height="30" as="geometry" />
        </mxCell>
        <mxCell id="swRQGkRVRpq4I_2BTuOX-58" value="Continent" style="text;strokeColor=none;fillColor=none;align=left;verticalAlign=middle;spacingLeft=4;spacingRight=4;overflow=hidden;points=[[0,0.5],[1,0.5]];portConstraint=eastwest;rotatable=0;whiteSpace=wrap;html=1;" parent="swRQGkRVRpq4I_2BTuOX-27" vertex="1">
          <mxGeometry y="60" width="140" height="30" as="geometry" />
        </mxCell>
        <mxCell id="swRQGkRVRpq4I_2BTuOX-30" value="City" style="text;strokeColor=none;fillColor=none;align=left;verticalAlign=middle;spacingLeft=4;spacingRight=4;overflow=hidden;points=[[0,0.5],[1,0.5]];portConstraint=eastwest;rotatable=0;whiteSpace=wrap;html=1;" parent="swRQGkRVRpq4I_2BTuOX-27" vertex="1">
          <mxGeometry y="90" width="140" height="30" as="geometry" />
        </mxCell>
        <mxCell id="swRQGkRVRpq4I_2BTuOX-33" value="" style="curved=0;endArrow=classic;html=1;rounded=1;entryX=0;entryY=0.5;entryDx=0;entryDy=0;exitX=0.99;exitY=0.167;exitDx=0;exitDy=0;exitPerimeter=0;" parent="WIyWlLk6GJQsqaUBKTNV-1" source="swRQGkRVRpq4I_2BTuOX-27" target="swRQGkRVRpq4I_2BTuOX-23" edge="1">
          <mxGeometry width="50" height="50" relative="1" as="geometry">
            <mxPoint x="-270" y="460" as="sourcePoint" />
            <mxPoint x="70" y="549" as="targetPoint" />
            <Array as="points">
              <mxPoint x="-90" y="460" />
              <mxPoint x="-90" y="829" />
            </Array>
          </mxGeometry>
        </mxCell>
        <mxCell id="swRQGkRVRpq4I_2BTuOX-40" value="1" style="edgeLabel;html=1;align=center;verticalAlign=middle;resizable=0;points=[];" parent="swRQGkRVRpq4I_2BTuOX-33" vertex="1" connectable="0">
          <mxGeometry x="0.9091" relative="1" as="geometry">
            <mxPoint x="15" as="offset" />
          </mxGeometry>
        </mxCell>
        <mxCell id="swRQGkRVRpq4I_2BTuOX-41" value="&lt;div&gt;Factory&lt;/div&gt;&lt;div&gt;located&lt;/div&gt;&lt;div&gt;in&lt;br&gt;&lt;/div&gt;" style="edgeLabel;html=1;align=center;verticalAlign=middle;resizable=0;points=[];" parent="swRQGkRVRpq4I_2BTuOX-33" vertex="1" connectable="0">
          <mxGeometry x="0.0933" y="2" relative="1" as="geometry">
            <mxPoint as="offset" />
          </mxGeometry>
        </mxCell>
        <mxCell id="swRQGkRVRpq4I_2BTuOX-34" value="" style="curved=0;endArrow=classic;html=1;rounded=1;entryX=0;entryY=0.5;entryDx=0;entryDy=0;exitX=1;exitY=0.5;exitDx=0;exitDy=0;" parent="WIyWlLk6GJQsqaUBKTNV-1" source="swRQGkRVRpq4I_2BTuOX-66" target="S2tDdmj9LWDVafaL_d1E-3" edge="1">
          <mxGeometry width="50" height="50" relative="1" as="geometry">
            <mxPoint x="-120" y="699" as="sourcePoint" />
            <mxPoint x="110" y="609" as="targetPoint" />
            <Array as="points">
              <mxPoint x="-40" y="880" />
              <mxPoint x="-40" y="446" />
            </Array>
          </mxGeometry>
        </mxCell>
        <mxCell id="swRQGkRVRpq4I_2BTuOX-52" value="&lt;div&gt;Championship&lt;/div&gt;&lt;div&gt;won by... (driver)&lt;br&gt;&lt;/div&gt;" style="edgeLabel;html=1;align=center;verticalAlign=middle;resizable=0;points=[];" parent="swRQGkRVRpq4I_2BTuOX-34" vertex="1" connectable="0">
          <mxGeometry x="0.1339" y="2" relative="1" as="geometry">
            <mxPoint y="-62" as="offset" />
          </mxGeometry>
        </mxCell>
        <mxCell id="_47ecx8BFIw6UD-ki121-2" value="1" style="edgeLabel;html=1;align=center;verticalAlign=middle;resizable=0;points=[];" vertex="1" connectable="0" parent="swRQGkRVRpq4I_2BTuOX-34">
          <mxGeometry x="0.9251" y="2" relative="1" as="geometry">
            <mxPoint x="9" as="offset" />
          </mxGeometry>
        </mxCell>
        <mxCell id="_47ecx8BFIw6UD-ki121-11" value="0..N" style="edgeLabel;html=1;align=center;verticalAlign=middle;resizable=0;points=[];" vertex="1" connectable="0" parent="swRQGkRVRpq4I_2BTuOX-34">
          <mxGeometry x="-0.9343" y="1" relative="1" as="geometry">
            <mxPoint x="5" as="offset" />
          </mxGeometry>
        </mxCell>
        <mxCell id="swRQGkRVRpq4I_2BTuOX-42" value="Pursuit" style="swimlane;fontStyle=0;childLayout=stackLayout;horizontal=1;startSize=30;horizontalStack=0;resizeParent=1;resizeParentMax=0;resizeLast=0;collapsible=1;marginBottom=0;whiteSpace=wrap;html=1;" parent="WIyWlLk6GJQsqaUBKTNV-1" vertex="1">
          <mxGeometry x="270" y="489" width="140" height="90" as="geometry" />
        </mxCell>
        <mxCell id="swRQGkRVRpq4I_2BTuOX-43" value="Date Beginning" style="text;strokeColor=none;fillColor=none;align=left;verticalAlign=middle;spacingLeft=4;spacingRight=4;overflow=hidden;points=[[0,0.5],[1,0.5]];portConstraint=eastwest;rotatable=0;whiteSpace=wrap;html=1;" parent="swRQGkRVRpq4I_2BTuOX-42" vertex="1">
          <mxGeometry y="30" width="140" height="30" as="geometry" />
        </mxCell>
        <mxCell id="swRQGkRVRpq4I_2BTuOX-44" value="Date End" style="text;strokeColor=none;fillColor=none;align=left;verticalAlign=middle;spacingLeft=4;spacingRight=4;overflow=hidden;points=[[0,0.5],[1,0.5]];portConstraint=eastwest;rotatable=0;whiteSpace=wrap;html=1;" parent="swRQGkRVRpq4I_2BTuOX-42" vertex="1">
          <mxGeometry y="60" width="140" height="30" as="geometry" />
        </mxCell>
        <mxCell id="swRQGkRVRpq4I_2BTuOX-46" value="" style="curved=0;endArrow=classic;html=1;rounded=1;entryX=1;entryY=0.5;entryDx=0;entryDy=0;exitX=0.012;exitY=0.157;exitDx=0;exitDy=0;exitPerimeter=0;" parent="WIyWlLk6GJQsqaUBKTNV-1" source="swRQGkRVRpq4I_2BTuOX-42" target="zkfFHV4jXpPFQw0GAbJ--3" edge="1">
          <mxGeometry width="50" height="50" relative="1" as="geometry">
            <mxPoint x="230" y="569" as="sourcePoint" />
            <mxPoint x="240" y="589" as="targetPoint" />
            <Array as="points">
              <mxPoint x="240" y="503" />
              <mxPoint x="240" y="574" />
            </Array>
          </mxGeometry>
        </mxCell>
        <mxCell id="swRQGkRVRpq4I_2BTuOX-48" value="0..N" style="edgeLabel;html=1;align=center;verticalAlign=middle;resizable=0;points=[];" parent="swRQGkRVRpq4I_2BTuOX-46" vertex="1" connectable="0">
          <mxGeometry x="-0.696" y="-1" relative="1" as="geometry">
            <mxPoint as="offset" />
          </mxGeometry>
        </mxCell>
        <mxCell id="swRQGkRVRpq4I_2BTuOX-49" value="1" style="edgeLabel;html=1;align=center;verticalAlign=middle;resizable=0;points=[];" parent="swRQGkRVRpq4I_2BTuOX-46" vertex="1" connectable="0">
          <mxGeometry x="0.6355" y="-3" relative="1" as="geometry">
            <mxPoint as="offset" />
          </mxGeometry>
        </mxCell>
        <mxCell id="swRQGkRVRpq4I_2BTuOX-47" value="" style="curved=0;endArrow=classic;html=1;rounded=1;exitX=1.022;exitY=0.163;exitDx=0;exitDy=0;exitPerimeter=0;entryX=1.009;entryY=0.058;entryDx=0;entryDy=0;entryPerimeter=0;" parent="WIyWlLk6GJQsqaUBKTNV-1" source="swRQGkRVRpq4I_2BTuOX-42" target="zkfFHV4jXpPFQw0GAbJ--13" edge="1">
          <mxGeometry width="50" height="50" relative="1" as="geometry">
            <mxPoint x="160" y="609" as="sourcePoint" />
            <mxPoint x="210" y="559" as="targetPoint" />
            <Array as="points">
              <mxPoint x="460" y="504" />
              <mxPoint x="460" y="649" />
            </Array>
          </mxGeometry>
        </mxCell>
        <mxCell id="swRQGkRVRpq4I_2BTuOX-50" value="0..N" style="edgeLabel;html=1;align=center;verticalAlign=middle;resizable=0;points=[];" parent="swRQGkRVRpq4I_2BTuOX-47" vertex="1" connectable="0">
          <mxGeometry x="-0.9062" y="1" relative="1" as="geometry">
            <mxPoint as="offset" />
          </mxGeometry>
        </mxCell>
        <mxCell id="swRQGkRVRpq4I_2BTuOX-51" value="1" style="edgeLabel;html=1;align=center;verticalAlign=middle;resizable=0;points=[];" parent="swRQGkRVRpq4I_2BTuOX-47" vertex="1" connectable="0">
          <mxGeometry x="0.8249" y="-1" relative="1" as="geometry">
            <mxPoint as="offset" />
          </mxGeometry>
        </mxCell>
        <mxCell id="swRQGkRVRpq4I_2BTuOX-53" value="Race" style="swimlane;fontStyle=0;childLayout=stackLayout;horizontal=1;startSize=30;horizontalStack=0;resizeParent=1;resizeParentMax=0;resizeLast=0;collapsible=1;marginBottom=0;whiteSpace=wrap;html=1;" parent="WIyWlLk6GJQsqaUBKTNV-1" vertex="1">
          <mxGeometry x="-730" y="563" width="140" height="180" as="geometry" />
        </mxCell>
        <mxCell id="swRQGkRVRpq4I_2BTuOX-54" value="Winner" style="text;strokeColor=none;fillColor=none;align=left;verticalAlign=middle;spacingLeft=4;spacingRight=4;overflow=hidden;points=[[0,0.5],[1,0.5]];portConstraint=eastwest;rotatable=0;whiteSpace=wrap;html=1;" parent="swRQGkRVRpq4I_2BTuOX-53" vertex="1">
          <mxGeometry y="30" width="140" height="30" as="geometry" />
        </mxCell>
        <mxCell id="swRQGkRVRpq4I_2BTuOX-55" value="Crashes" style="text;strokeColor=none;fillColor=none;align=left;verticalAlign=middle;spacingLeft=4;spacingRight=4;overflow=hidden;points=[[0,0.5],[1,0.5]];portConstraint=eastwest;rotatable=0;whiteSpace=wrap;html=1;" parent="swRQGkRVRpq4I_2BTuOX-53" vertex="1">
          <mxGeometry y="60" width="140" height="30" as="geometry" />
        </mxCell>
        <mxCell id="swRQGkRVRpq4I_2BTuOX-57" value="Engine Failures" style="text;strokeColor=none;fillColor=none;align=left;verticalAlign=middle;spacingLeft=4;spacingRight=4;overflow=hidden;points=[[0,0.5],[1,0.5]];portConstraint=eastwest;rotatable=0;whiteSpace=wrap;html=1;" parent="swRQGkRVRpq4I_2BTuOX-53" vertex="1">
          <mxGeometry y="90" width="140" height="30" as="geometry" />
        </mxCell>
        <mxCell id="swRQGkRVRpq4I_2BTuOX-74" value="Location" style="text;strokeColor=none;fillColor=none;align=left;verticalAlign=middle;spacingLeft=4;spacingRight=4;overflow=hidden;points=[[0,0.5],[1,0.5]];portConstraint=eastwest;rotatable=0;whiteSpace=wrap;html=1;" parent="swRQGkRVRpq4I_2BTuOX-53" vertex="1">
          <mxGeometry y="120" width="140" height="30" as="geometry" />
        </mxCell>
        <mxCell id="swRQGkRVRpq4I_2BTuOX-56" value="Date" style="text;strokeColor=none;fillColor=none;align=left;verticalAlign=middle;spacingLeft=4;spacingRight=4;overflow=hidden;points=[[0,0.5],[1,0.5]];portConstraint=eastwest;rotatable=0;whiteSpace=wrap;html=1;" parent="swRQGkRVRpq4I_2BTuOX-53" vertex="1">
          <mxGeometry y="150" width="140" height="30" as="geometry" />
        </mxCell>
        <mxCell id="swRQGkRVRpq4I_2BTuOX-61" value="" style="curved=0;endArrow=classic;html=1;rounded=1;exitX=-0.006;exitY=0.148;exitDx=0;exitDy=0;exitPerimeter=0;" parent="WIyWlLk6GJQsqaUBKTNV-1" source="swRQGkRVRpq4I_2BTuOX-27" edge="1">
          <mxGeometry width="50" height="50" relative="1" as="geometry">
            <mxPoint x="-430" y="610" as="sourcePoint" />
            <mxPoint x="-730" y="700" as="targetPoint" />
            <Array as="points">
              <mxPoint x="-790" y="460" />
              <mxPoint x="-790" y="700" />
            </Array>
          </mxGeometry>
        </mxCell>
        <mxCell id="_47ecx8BFIw6UD-ki121-0" value="Raced at" style="edgeLabel;html=1;align=center;verticalAlign=middle;resizable=0;points=[];" vertex="1" connectable="0" parent="swRQGkRVRpq4I_2BTuOX-61">
          <mxGeometry x="0.2428" y="4" relative="1" as="geometry">
            <mxPoint as="offset" />
          </mxGeometry>
        </mxCell>
        <mxCell id="swRQGkRVRpq4I_2BTuOX-62" value="" style="curved=0;endArrow=classic;html=1;rounded=1;entryX=0;entryY=0.5;entryDx=0;entryDy=0;" parent="WIyWlLk6GJQsqaUBKTNV-1" target="swRQGkRVRpq4I_2BTuOX-22" edge="1">
          <mxGeometry width="50" height="50" relative="1" as="geometry">
            <mxPoint x="-300" y="910" as="sourcePoint" />
            <mxPoint x="-10" y="730" as="targetPoint" />
            <Array as="points">
              <mxPoint x="-30" y="910" />
              <mxPoint x="-30" y="733" />
            </Array>
          </mxGeometry>
        </mxCell>
        <mxCell id="_47ecx8BFIw6UD-ki121-7" value="&lt;div&gt;Championship&lt;/div&gt;&lt;div&gt;won by... (team)&lt;br&gt;&lt;/div&gt;" style="edgeLabel;html=1;align=center;verticalAlign=middle;resizable=0;points=[];" vertex="1" connectable="0" parent="swRQGkRVRpq4I_2BTuOX-62">
          <mxGeometry x="-0.3419" y="1" relative="1" as="geometry">
            <mxPoint as="offset" />
          </mxGeometry>
        </mxCell>
        <mxCell id="_47ecx8BFIw6UD-ki121-9" value="0..N" style="edgeLabel;html=1;align=center;verticalAlign=middle;resizable=0;points=[];" vertex="1" connectable="0" parent="swRQGkRVRpq4I_2BTuOX-62">
          <mxGeometry x="-0.9048" y="1" relative="1" as="geometry">
            <mxPoint as="offset" />
          </mxGeometry>
        </mxCell>
        <mxCell id="_47ecx8BFIw6UD-ki121-10" value="1" style="edgeLabel;html=1;align=center;verticalAlign=middle;resizable=0;points=[];" vertex="1" connectable="0" parent="swRQGkRVRpq4I_2BTuOX-62">
          <mxGeometry x="0.9218" y="-1" relative="1" as="geometry">
            <mxPoint x="4" as="offset" />
          </mxGeometry>
        </mxCell>
        <mxCell id="swRQGkRVRpq4I_2BTuOX-64" value="" style="curved=0;endArrow=classic;html=1;rounded=1;entryX=0;entryY=0.5;entryDx=0;entryDy=0;" parent="WIyWlLk6GJQsqaUBKTNV-1" target="swRQGkRVRpq4I_2BTuOX-35" edge="1">
          <mxGeometry width="50" height="50" relative="1" as="geometry">
            <mxPoint x="-590" y="580" as="sourcePoint" />
            <mxPoint x="-530" y="710" as="targetPoint" />
            <Array as="points">
              <mxPoint x="-520" y="580" />
              <mxPoint x="-520" y="800" />
            </Array>
          </mxGeometry>
        </mxCell>
        <mxCell id="swRQGkRVRpq4I_2BTuOX-67" value="1" style="edgeLabel;html=1;align=center;verticalAlign=middle;resizable=0;points=[];" parent="swRQGkRVRpq4I_2BTuOX-64" vertex="1" connectable="0">
          <mxGeometry x="0.8672" y="2" relative="1" as="geometry">
            <mxPoint as="offset" />
          </mxGeometry>
        </mxCell>
        <mxCell id="swRQGkRVRpq4I_2BTuOX-68" value="1" style="edgeLabel;html=1;align=center;verticalAlign=middle;resizable=0;points=[];fontSize=13;" parent="swRQGkRVRpq4I_2BTuOX-64" vertex="1" connectable="0">
          <mxGeometry x="-0.9222" y="2" relative="1" as="geometry">
            <mxPoint y="2" as="offset" />
          </mxGeometry>
        </mxCell>
        <mxCell id="swRQGkRVRpq4I_2BTuOX-81" value="Raced in" style="edgeLabel;html=1;align=center;verticalAlign=middle;resizable=0;points=[];" parent="swRQGkRVRpq4I_2BTuOX-64" vertex="1" connectable="0">
          <mxGeometry x="-0.1284" y="-1" relative="1" as="geometry">
            <mxPoint as="offset" />
          </mxGeometry>
        </mxCell>
        <mxCell id="swRQGkRVRpq4I_2BTuOX-76" value="" style="curved=0;endArrow=classic;html=1;rounded=1;exitX=1.011;exitY=0.107;exitDx=0;exitDy=0;exitPerimeter=0;entryX=0;entryY=0.5;entryDx=0;entryDy=0;" parent="WIyWlLk6GJQsqaUBKTNV-1" source="swRQGkRVRpq4I_2BTuOX-27" target="zkfFHV4jXpPFQw0GAbJ--2" edge="1">
          <mxGeometry width="50" height="50" relative="1" as="geometry">
            <mxPoint x="-130" y="470" as="sourcePoint" />
            <mxPoint x="-80" y="420" as="targetPoint" />
            <Array as="points">
              <mxPoint x="-90" y="453" />
              <mxPoint x="-90" y="394" />
            </Array>
          </mxGeometry>
        </mxCell>
        <mxCell id="swRQGkRVRpq4I_2BTuOX-77" value="1..N" style="edgeLabel;html=1;align=center;verticalAlign=middle;resizable=0;points=[];" parent="swRQGkRVRpq4I_2BTuOX-76" vertex="1" connectable="0">
          <mxGeometry x="0.8614" relative="1" as="geometry">
            <mxPoint as="offset" />
          </mxGeometry>
        </mxCell>
        <mxCell id="_47ecx8BFIw6UD-ki121-20" value="Born in" style="edgeLabel;html=1;align=center;verticalAlign=middle;resizable=0;points=[];" vertex="1" connectable="0" parent="swRQGkRVRpq4I_2BTuOX-76">
          <mxGeometry x="-0.2023" y="4" relative="1" as="geometry">
            <mxPoint x="-26" as="offset" />
          </mxGeometry>
        </mxCell>
        <mxCell id="swRQGkRVRpq4I_2BTuOX-39" value="1.N" style="edgeLabel;html=1;align=center;verticalAlign=middle;resizable=0;points=[];fontSize=15;" parent="WIyWlLk6GJQsqaUBKTNV-1" vertex="1" connectable="0">
          <mxGeometry x="-229.99907382762171" y="458.9998377631984" as="geometry">
            <mxPoint x="-10" y="-3" as="offset" />
          </mxGeometry>
        </mxCell>
        <mxCell id="swRQGkRVRpq4I_2BTuOX-75" value="" style="curved=0;endArrow=classic;html=1;rounded=1;exitX=0;exitY=0.5;exitDx=0;exitDy=0;" parent="WIyWlLk6GJQsqaUBKTNV-1" source="S2tDdmj9LWDVafaL_d1E-4" edge="1">
          <mxGeometry width="50" height="50" relative="1" as="geometry">
            <mxPoint x="-180" y="620" as="sourcePoint" />
            <mxPoint x="-590" y="610" as="targetPoint" />
            <Array as="points">
              <mxPoint x="-160" y="472" />
              <mxPoint x="-160" y="610" />
            </Array>
          </mxGeometry>
        </mxCell>
        <mxCell id="swRQGkRVRpq4I_2BTuOX-79" value="1" style="edgeLabel;html=1;align=center;verticalAlign=middle;resizable=0;points=[];" parent="swRQGkRVRpq4I_2BTuOX-75" vertex="1" connectable="0">
          <mxGeometry x="-0.7548" y="-1" relative="1" as="geometry">
            <mxPoint x="74" as="offset" />
          </mxGeometry>
        </mxCell>
        <mxCell id="swRQGkRVRpq4I_2BTuOX-80" value="0.N" style="edgeLabel;html=1;align=center;verticalAlign=middle;resizable=0;points=[];" parent="swRQGkRVRpq4I_2BTuOX-75" vertex="1" connectable="0">
          <mxGeometry x="0.8401" y="-3" relative="1" as="geometry">
            <mxPoint x="-41" as="offset" />
          </mxGeometry>
        </mxCell>
        <mxCell id="_47ecx8BFIw6UD-ki121-4" value="Race won by..." style="edgeLabel;html=1;align=center;verticalAlign=middle;resizable=0;points=[];" vertex="1" connectable="0" parent="swRQGkRVRpq4I_2BTuOX-75">
          <mxGeometry x="0.0646" y="1" relative="1" as="geometry">
            <mxPoint as="offset" />
          </mxGeometry>
        </mxCell>
        <mxCell id="_47ecx8BFIw6UD-ki121-13" value="...(driver)" style="edgeLabel;html=1;align=center;verticalAlign=middle;resizable=0;points=[];" vertex="1" connectable="0" parent="swRQGkRVRpq4I_2BTuOX-75">
          <mxGeometry x="-0.2562" y="-1" relative="1" as="geometry">
            <mxPoint as="offset" />
          </mxGeometry>
        </mxCell>
        <mxCell id="_47ecx8BFIw6UD-ki121-12" value="" style="curved=0;endArrow=classic;html=1;rounded=1;entryX=0;entryY=0.344;entryDx=0;entryDy=0;entryPerimeter=0;" edge="1" parent="WIyWlLk6GJQsqaUBKTNV-1" target="swRQGkRVRpq4I_2BTuOX-24">
          <mxGeometry width="50" height="50" relative="1" as="geometry">
            <mxPoint x="-190" y="610" as="sourcePoint" />
            <mxPoint x="-160" y="630" as="targetPoint" />
            <Array as="points">
              <mxPoint x="-160" y="610" />
              <mxPoint x="-160" y="760" />
            </Array>
          </mxGeometry>
        </mxCell>
        <mxCell id="_47ecx8BFIw6UD-ki121-14" value="...(team)" style="edgeLabel;html=1;align=center;verticalAlign=middle;resizable=0;points=[];" vertex="1" connectable="0" parent="_47ecx8BFIw6UD-ki121-12">
          <mxGeometry x="-0.5798" y="-1" relative="1" as="geometry">
            <mxPoint as="offset" />
          </mxGeometry>
        </mxCell>
        <mxCell id="_47ecx8BFIw6UD-ki121-16" value="1" style="edgeLabel;html=1;align=center;verticalAlign=middle;resizable=0;points=[];" vertex="1" connectable="0" parent="_47ecx8BFIw6UD-ki121-12">
          <mxGeometry x="0.9166" y="-1" relative="1" as="geometry">
            <mxPoint as="offset" />
          </mxGeometry>
        </mxCell>
      </root>
    </mxGraphModel>
  </diagram>
</mxfile>
